<svg width="300" height="275" viewBox="0 0 300 275" fill="none" xmlns="http://www.w3.org/2000/svg">
<path opacity="0.2" d="M-0.666523 36.4885C8.45208 33.8343 32.7871 33.6561 57.1783 54.1762C56.4474 53.8711 46.0064 62.434 79.3142 73.1086C80.0451 73.4137 168.274 77.9422 204.923 109.395C205.114 108.936 284.276 116.679 352.72 172.711C351.606 173.323 355.295 150.096 377.013 172.085C375.169 172.391 423.459 155.401 433.692 182.286" stroke="#04F9F4" stroke-width="0.2"/>
<path opacity="0.2" d="M-17.6665 52.4885C-8.54792 49.8343 15.7871 49.6561 40.1783 70.1762C39.4474 69.8711 29.0064 78.434 62.3142 89.1086C63.0451 89.4137 151.274 93.9422 187.923 125.395C188.114 124.936 267.276 132.679 335.72 188.711C334.606 189.323 338.295 166.096 360.013 188.085C358.169 188.391 406.459 171.401 416.692 198.286" stroke="#04F9F4" stroke-width="0.2"/>
<path opacity="0.2" d="M-34.6665 68.4885C-25.5479 65.8343 -1.21292 65.6561 23.1783 86.1762C22.4474 85.8711 12.0064 94.434 45.3142 105.109C46.0451 105.414 134.274 109.942 170.923 141.395C171.114 140.936 250.276 148.679 318.72 204.711C317.606 205.323 321.295 182.096 343.013 204.085C341.169 204.391 389.459 187.401 399.692 214.286" stroke="#04F9F4" stroke-width="0.2"/>
<path opacity="0.2" d="M-51.6665 84.4885C-42.5479 81.8343 -18.2129 81.6561 6.17829 102.176C5.4474 101.871 -4.99358 110.434 28.3142 121.109C29.0451 121.414 117.274 125.942 153.923 157.395C154.114 156.936 233.276 164.679 301.72 220.711C300.606 221.323 304.295 198.096 326.013 220.085C324.169 220.391 372.459 203.401 382.692 230.286" stroke="#04F9F4" stroke-width="0.2"/>
<path opacity="0.2" d="M-68.6665 100.488C-59.5479 97.8343 -35.2129 97.6561 -10.8217 118.176C-11.5526 117.871 -21.9936 126.434 11.3142 137.109C12.0451 137.414 100.274 141.942 136.923 173.395C137.114 172.936 216.276 180.679 284.72 236.711C283.606 237.323 287.295 214.096 309.013 236.085C307.169 236.391 355.459 219.401 365.692 246.286" stroke="#04F9F4" stroke-width="0.2"/>
<path opacity="0.2" d="M-85.6665 116.488C-76.5479 113.834 -52.2129 113.656 -27.8217 134.176C-28.5526 133.871 -38.9936 142.434 -5.68583 153.109C-4.95493 153.414 83.2735 157.942 119.923 189.395C120.114 188.936 199.276 196.679 267.72 252.711C266.606 253.323 270.295 230.096 292.013 252.085C290.169 252.391 338.459 235.401 348.692 262.286" stroke="#04F9F4" stroke-width="0.2"/>
<path opacity="0.2" d="M-102.667 132.488C-93.5479 129.834 -69.2129 129.656 -44.8217 150.176C-45.5526 149.871 -55.9936 158.434 -22.6858 169.109C-21.9549 169.414 66.2735 173.942 102.923 205.395C103.114 204.936 182.276 212.679 250.72 268.711C249.606 269.323 253.295 246.096 275.013 268.085C273.169 268.391 321.459 251.401 331.692 278.286" stroke="#04F9F4" stroke-width="0.2"/>
<path opacity="0.2" d="M-119.667 148.488C-110.548 145.834 -86.2129 145.656 -61.8217 166.176C-62.5526 165.871 -72.9936 174.434 -39.6858 185.109C-38.9549 185.414 49.2735 189.942 85.923 221.395C86.1144 220.936 165.276 228.679 233.72 284.711C232.606 285.323 236.295 262.096 258.013 284.085C256.169 284.391 304.459 267.401 314.692 294.286" stroke="#04F9F4" stroke-width="0.2"/>
<path opacity="0.2" d="M-136.667 164.488C-127.548 161.834 -103.213 161.656 -78.8217 182.176C-79.5526 181.871 -89.9936 190.434 -56.6858 201.109C-55.9549 201.414 32.2735 205.942 68.923 237.395C69.1144 236.936 148.276 244.679 216.72 300.711C215.606 301.323 219.295 278.096 241.013 300.085C239.169 300.391 287.459 283.401 297.692 310.286" stroke="#04F9F4" stroke-width="0.2"/>
<path opacity="0.2" d="M-153.667 180.488C-144.548 177.834 -120.213 177.656 -95.8217 198.176C-96.5526 197.871 -106.994 206.434 -73.6858 217.109C-72.9549 217.414 15.2735 221.942 51.923 253.395C52.1144 252.936 131.276 260.679 199.72 316.711C198.606 317.323 202.295 294.096 224.013 316.085C222.169 316.391 270.459 299.401 280.692 326.286" stroke="#04F9F4" stroke-width="0.2"/>
<path opacity="0.2" d="M-170.667 196.488C-161.548 193.834 -137.213 193.656 -112.822 214.176C-113.553 213.871 -123.994 222.434 -90.6858 233.109C-89.9549 233.414 -1.72649 237.942 34.923 269.395C35.1144 268.936 114.276 276.679 182.72 332.711C181.606 333.323 185.295 310.096 207.013 332.085C205.169 332.391 253.459 315.401 263.692 342.286" stroke="#04F9F4" stroke-width="0.2"/>
<path opacity="0.2" d="M-187.667 212.488C-178.548 209.834 -154.213 209.656 -129.822 230.176C-130.553 229.871 -140.994 238.434 -107.686 249.109C-106.955 249.414 -18.7265 253.942 17.923 285.395C18.1144 284.936 97.2764 292.679 165.72 348.711C164.606 349.323 168.295 326.096 190.013 348.085C188.169 348.391 236.459 331.401 246.692 358.286" stroke="#04F9F4" stroke-width="0.2"/>
<path opacity="0.2" d="M-204.667 228.488C-195.548 225.834 -171.213 225.656 -146.822 246.176C-147.553 245.871 -157.994 254.434 -124.686 265.109C-123.955 265.414 -35.7265 269.942 0.922985 301.395C1.1144 300.936 80.2764 308.679 148.72 364.711C147.606 365.323 151.295 342.096 173.013 364.085C171.169 364.391 219.459 347.401 229.692 374.286" stroke="#04F9F4" stroke-width="0.2"/>
<path opacity="0.2" d="M-221.667 244.488C-212.548 241.834 -188.213 241.656 -163.822 262.176C-164.553 261.871 -174.994 270.434 -141.686 281.109C-140.955 281.414 -52.7265 285.942 -16.077 317.395C-15.8856 316.936 63.2764 324.679 131.72 380.711C130.606 381.323 134.295 358.096 156.013 380.085C154.169 380.391 202.459 363.401 212.692 390.286" stroke="#04F9F4" stroke-width="0.2"/>
<path opacity="0.2" d="M-238.667 260.488C-229.548 257.834 -205.213 257.656 -180.822 278.176C-181.553 277.871 -191.994 286.434 -158.686 297.109C-157.955 297.414 -69.7265 301.942 -33.077 333.395C-32.8856 332.936 46.2764 340.679 114.72 396.711C113.606 397.323 117.295 374.096 139.013 396.085C137.169 396.391 185.459 379.401 195.692 406.286" stroke="#04F9F4" stroke-width="0.2"/>
<path opacity="0.2" d="M-255.667 276.488C-246.548 273.834 -222.213 273.656 -197.822 294.176C-198.553 293.871 -208.994 302.434 -175.686 313.109C-174.955 313.414 -86.7265 317.942 -50.077 349.395C-49.8856 348.936 29.2764 356.679 97.7201 412.711C96.6064 413.323 100.295 390.096 122.013 412.085C120.169 412.391 168.459 395.401 178.692 422.286" stroke="#04F9F4" stroke-width="0.2"/>
<path opacity="0.2" d="M-272.667 292.488C-263.548 289.834 -239.213 289.656 -214.822 310.176C-215.553 309.871 -225.994 318.434 -192.686 329.109C-191.955 329.414 -103.726 333.942 -67.077 365.395C-66.8856 364.936 12.2764 372.679 80.7201 428.711C79.6064 429.323 83.295 406.096 105.013 428.085C103.169 428.391 151.459 411.401 161.692 438.286" stroke="#04F9F4" stroke-width="0.2"/>
<path opacity="0.2" d="M-289.667 308.488C-280.548 305.834 -256.213 305.656 -231.822 326.176C-232.553 325.871 -242.994 334.434 -209.686 345.109C-208.955 345.414 -120.726 349.942 -84.077 381.395C-83.8856 380.936 -4.72355 388.679 63.7201 444.711C62.6064 445.323 66.295 422.096 88.0133 444.085C86.1687 444.391 134.459 427.401 144.692 454.286" stroke="#04F9F4" stroke-width="0.2"/>
</svg>
